<svg width="24" height="24" viewBox="0 0 24 24" fill="none" xmlns="http://www.w3.org/2000/svg">
<path d="M19.32 9.53323C19.2638 7.72659 18.4972 6.01505 17.1866 4.77032C15.8759 3.52559 14.1271 2.84819 12.32 2.88523C10.8584 2.8679 9.42767 3.30666 8.22704 4.14045C7.02642 4.97424 6.1156 6.16158 5.62133 7.53723C4.08215 7.74534 2.66858 8.49838 1.63718 9.65968C0.605781 10.821 0.0249129 12.3136 0 13.8666C0.0460898 15.6134 0.783615 17.2706 2.0506 18.474C3.31758 19.6775 5.01042 20.3289 6.75733 20.2852H18.4267C19.8723 20.2491 21.2506 19.6671 22.2845 18.6561C23.3185 17.6452 23.9314 16.2803 24 14.8359C23.9733 13.5413 23.4884 12.298 22.6315 11.3271C21.7746 10.3563 20.6013 9.72065 19.32 9.53323Z" fill="url(#paint0_linear_4709_9464)"/>
<path d="M17.2 15.1997V10.6664H16V16.1731H19.28V15.1997H17.2ZM7.68001 12.9731C7.4322 12.8736 7.20246 12.7339 7.00001 12.5598C6.9463 12.5029 6.90448 12.4358 6.877 12.3625C6.84953 12.2893 6.83695 12.2113 6.84001 12.1331C6.83619 12.0548 6.85258 11.9769 6.88761 11.9069C6.92264 11.8368 6.97513 11.777 7.04001 11.7331C7.20413 11.6199 7.40087 11.5637 7.60001 11.5731C8.0749 11.5517 8.54356 11.6877 8.93335 11.9598V10.8131C8.50736 10.6546 8.05419 10.5821 7.60001 10.5997C7.07692 10.572 6.56124 10.7329 6.14668 11.0531C5.96601 11.1924 5.82102 11.3726 5.72366 11.5789C5.6263 11.7852 5.57935 12.0117 5.58668 12.2398C5.58668 12.9198 6.01335 13.4531 6.92001 13.8531C7.21432 13.9784 7.49199 14.1396 7.74668 14.3331C7.80909 14.3853 7.85932 14.4506 7.89387 14.5243C7.92841 14.598 7.94644 14.6784 7.94668 14.7597C7.94661 14.8407 7.92721 14.9204 7.8901 14.9923C7.85299 15.0642 7.79925 15.1262 7.73335 15.1731C7.55201 15.2796 7.34339 15.3306 7.13335 15.3197C6.59706 15.3153 6.08061 15.1163 5.68001 14.7597V15.9998C6.12039 16.2266 6.61159 16.3368 7.10668 16.3198C7.66558 16.3532 8.21955 16.1983 8.68001 15.8798C8.84269 15.7257 8.96718 15.5358 9.04356 15.3251C9.11995 15.1145 9.14612 14.8889 9.12001 14.6664C9.12667 14.325 9.0081 13.993 8.78668 13.7331C8.47503 13.4051 8.09801 13.1462 7.68001 12.9731ZM14.6667 15.0931C14.9562 14.6292 15.1097 14.0933 15.1097 13.5464C15.1097 12.9996 14.9562 12.4637 14.6667 11.9998C14.4587 11.5833 14.1345 11.236 13.7333 10.9998C13.3269 10.7694 12.8672 10.6499 12.4 10.6531C11.8965 10.6421 11.3992 10.7665 10.96 11.0131C10.5482 11.2426 10.2105 11.5849 9.98668 11.9998C9.75089 12.4713 9.63199 12.9926 9.64001 13.5198C9.64261 13.9829 9.75212 14.4392 9.96001 14.8531C10.1639 15.2647 10.4837 15.6076 10.88 15.8398C11.2826 16.0856 11.7419 16.2234 12.2133 16.2398L13.36 17.5731H14.9733L13.3333 16.1064C13.8856 15.9408 14.3592 15.5808 14.6667 15.0931ZM13.3333 14.7597C13.2119 14.9104 13.0572 15.031 12.8814 15.1119C12.7056 15.1929 12.5135 15.2321 12.32 15.2264C12.1251 15.2332 11.9313 15.1931 11.755 15.1096C11.5787 15.0261 11.425 14.9015 11.3067 14.7464C11.0252 14.3612 10.8883 13.8892 10.92 13.4131C10.8889 12.9371 11.0258 12.4653 11.3067 12.0798C11.4322 11.9251 11.5907 11.8004 11.7707 11.7151C11.9507 11.6297 12.1475 11.5857 12.3467 11.5864C12.5414 11.5779 12.7351 11.6186 12.9099 11.7049C13.0847 11.7911 13.2349 11.92 13.3467 12.0798C13.6095 12.4728 13.7359 12.9412 13.7067 13.4131C13.7533 13.8927 13.6203 14.3726 13.3333 14.7597Z" fill="#F2F2F2"/>
<defs>
<linearGradient id="paint0_linear_4709_9464" x1="13.2107" y1="21.2572" x2="10.0213" y2="3.17723" gradientUnits="userSpaceOnUse">
<stop offset="0.15" stop-color="#0078D4"/>
<stop offset="0.8" stop-color="#5EA0EF"/>
<stop offset="1" stop-color="#83B9F9"/>
</linearGradient>
</defs>
</svg>
