<?xml version="1.0" encoding="UTF-8" standalone="no"?>
<!DOCTYPE svg PUBLIC "-//W3C//DTD SVG 1.1//EN" "http://www.w3.org/Graphics/SVG/1.1/DTD/svg11.dtd">
<svg width="100%" height="100%" viewBox="0 0 4961 3508" version="1.1" xmlns="http://www.w3.org/2000/svg" xmlns:xlink="http://www.w3.org/1999/xlink" xml:space="preserve" xmlns:serif="http://www.serif.com/" style="fill-rule:evenodd;clip-rule:evenodd;stroke-linecap:round;stroke-linejoin:round;stroke-miterlimit:1.5;">
    <g transform="matrix(4.456021,-0.328653,0.328653,4.456021,-7983.086072,-4901.168104)">
        <path d="M2050.125,1321.774L2083.29,1404.708C2113.339,1392.89 2126.487,1381.191 2123.505,1364.886L2115.436,1340.969C2103.023,1323.539 2075.827,1311.583 2050.125,1321.774Z" style="fill:white;"/>
    </g>
    <g transform="matrix(4.456021,-0.328653,0.328653,4.456021,-7983.086072,-4901.168104)">
        <path d="M2107.792,1989.799L2288.271,2007.825C2315.303,2005.204 2361.986,1994.327 2392.27,1946.576C2466.246,1957.896 2520.694,1903.927 2562.28,1806.948C2173.356,1806.142 2202.658,1810.186 2107.792,1989.799Z" style="fill:white;"/>
    </g>
    <g transform="matrix(4.456021,-0.328653,0.328653,4.456021,-7983.086072,-4901.168104)">
        <path d="M1847.015,1658.822C1842.124,1641.783 1922.721,1560.958 2007.322,1493.418C2086.897,1429.891 2160.22,1409.625 2155.294,1374.685C2154.976,1372.425 2135.361,1304.574 2135.361,1304.574C2370.912,1219.248 2460.822,1768.991 2455.914,1769.075C2273.589,1772.179 2201.79,1751.109 2098.43,1927.51C2097.971,1928.293 2011.458,1918.199 2011.458,1918.199L2106.27,1746.831C2171.541,1766.735 2250.873,1740.593 2281.607,1694.675C2299.234,1668.34 2268.97,1653.992 2252.096,1678.063C2204.408,1746.091 2083.947,1703.099 2045.704,1710.036C2043.736,1705.639 1929.177,1768.052 1910.241,1757.466C1880.854,1741.038 1847.015,1658.822 1847.015,1658.822Z" style="fill:white;"/>
        <clipPath id="_clip1">
            <path d="M1847.015,1658.822C1842.124,1641.783 1922.721,1560.958 2007.322,1493.418C2086.897,1429.891 2160.22,1409.625 2155.294,1374.685C2154.976,1372.425 2135.361,1304.574 2135.361,1304.574C2370.912,1219.248 2460.822,1768.991 2455.914,1769.075C2273.589,1772.179 2201.79,1751.109 2098.43,1927.51C2097.971,1928.293 2011.458,1918.199 2011.458,1918.199L2106.27,1746.831C2171.541,1766.735 2250.873,1740.593 2281.607,1694.675C2299.234,1668.34 2268.97,1653.992 2252.096,1678.063C2204.408,1746.091 2083.947,1703.099 2045.704,1710.036C2043.736,1705.639 1929.177,1768.052 1910.241,1757.466C1880.854,1741.038 1847.015,1658.822 1847.015,1658.822Z"/>
        </clipPath>
        <g clip-path="url(#_clip1)">
            <path d="M2080.645,1549.144C2062.731,1564.439 2079.159,1586.275 2097.39,1576.47L2151.453,1538.594C2168.71,1524.496 2149.724,1501.858 2134.353,1511.372L2080.645,1549.144Z" style="fill:black;stroke:white;stroke-width:0.22px;"/>
        </g>
        <path d="M1847.015,1658.822C1842.124,1641.783 1922.721,1560.958 2007.322,1493.418C2086.897,1429.891 2160.22,1409.625 2155.294,1374.685C2154.976,1372.425 2135.361,1304.574 2135.361,1304.574C2370.912,1219.248 2460.822,1768.991 2455.914,1769.075C2273.589,1772.179 2201.79,1751.109 2098.43,1927.51C2097.971,1928.293 2011.458,1918.199 2011.458,1918.199L2106.27,1746.831C2171.541,1766.735 2250.873,1740.593 2281.607,1694.675C2299.234,1668.34 2268.97,1653.992 2252.096,1678.063C2204.408,1746.091 2083.947,1703.099 2045.704,1710.036C2043.736,1705.639 1929.177,1768.052 1910.241,1757.466C1880.854,1741.038 1847.015,1658.822 1847.015,1658.822Z" style="fill:none;stroke:black;stroke-width:0.22px;"/>
    </g>
    <g transform="matrix(4.456021,-0.328653,0.328653,4.456021,-7983.086072,-4901.168104)">
        <path d="M2325.876,1349.94C2433.71,1275.232 2523.979,1407.839 2653.099,1672.963C2654.185,1701.001 2584.686,1769.199 2493.923,1768.999C2491.369,1768.994 2481.085,1663.934 2456.104,1599.215C2417.535,1499.296 2373.693,1395.733 2325.876,1349.94Z" style="fill:white;"/>
    </g>
</svg>
