<?xml version="1.0" encoding="utf-8"?>
<!-- Uploaded to: SVG Repo, www.svgrepo.com, Generator: SVG Repo Mixer Tools -->
<svg width="800px" height="800px" viewBox="0 0 1024 1024" class="icon"  version="1.1" xmlns="http://www.w3.org/2000/svg"><path d="M780 620.8l-328.6-0.4c-2.6 0.2-7.4 0.3-9 0.3-3.4 0-6.7-0.1-10.1-0.4h-0.1C355.1 614.9 294 547.7 294 465.9c0-84.7 66.6-153.6 148.7-154.4 18-79 87.4-136.7 167.6-136.7 43.3 0 84.7 16.6 116.5 46.8 26.4 25 44.3 57.5 51.7 93 9.9-2.1 20-3.1 30.2-3.1 82.7 0 150.1 69.3 150.1 154.4 0 85.2-67.3 154.4-150.1 154.4-5.1 0-9.9 0.1-14.5 0.2-4.7 0.2-9.3 0.3-14.2 0.3z m-327-35.9l327 0.4c4.6 0 8.9-0.1 13.4-0.2 4.9-0.1 9.8-0.2 15.2-0.2 63.2 0 114.6-53.4 114.6-119s-51.4-119-114.6-119c-13.2 0-26.2 2.3-38.6 6.9l-21.8 8.1-2.1-23.2c-6.5-73.3-65-128.6-136-128.6-67.8 0-126 52.5-135.3 122l-2.3 17-17.1-1.8c-3.8-0.4-7.7-0.6-11.5-0.6-63.2 0-114.6 53.4-114.6 119 0 62.7 46.1 114.3 104.4 118.9l16.2-0.1c1.1 0.3 2.2 0.3 3.1 0.4z" fill="#1A1A1A" /><path d="M662.6 378.6c-18.6 0-36.4 3.5-52.9 9.8-8.5-98.6-86.5-175.8-181.6-175.8-92.1 0-168.3 72.6-180.6 166.8-5.2-0.5-10.4-0.8-15.7-0.8-86.3 0-156.3 74.3-156.3 166S143.7 711 230 711c1.5 0 7.5-0.2 10-0.4h-1.1v-0.2c2.9 0 2.7 0.1 1.1 0.2l388.8 0.5c11.4 0 21.6-0.5 33.8-0.5 86.3 0 156.3-74.3 156.3-166s-70-166-156.3-166z" fill="#00B36A" /><path d="M101 466.4c-11.8 23.3-18.4 49.9-18.4 78.2-0.1 91.7 68 166.4 154.4 166.4 1.5 0 7.5-0.2 10-0.4h-1.1v-0.2c2.9 0 2.7 0.1 1.1 0.2l388.8 0.5c5.2 0 10.2-0.1 15.2-0.2l1.5-2.1c-322 0-495.1-35.5-551.5-242.4z" fill="#009957" /><path d="M637.4 728.9c-10.5 0-18.9-8.5-18.9-18.9s8.5-19 18.9-19c5.4 0 10.6-0.1 15.8-0.2 5.7-0.1 11.5-0.3 18-0.3 75.7 0 137.4-66 137.4-147.1s-61.6-147-137.4-147c-15.8 0-31.3 2.9-46.1 8.5l-23.5 9-2.2-25c-7.8-90.3-77.7-158.5-162.7-158.5-81 0-150.6 64.6-161.8 150.4l-2.4 18.3-18.4-1.9c-4.6-0.5-9.2-0.7-13.7-0.7-75.7 0-137.4 66-137.4 147.1 0 77.6 55.4 141.5 125.5 147.1l18.9-0.2h2.3c0.7 0 1.5 0.1 2.2 0.2l34.7 0.1c10.5 0 18.9 8.5 18.9 19 0 10.4-8.5 18.9-18.9 18.9l-37.4-0.1c-1 0.1-2.2 0.1-3.5 0.2-2.9 0.1-6 0.2-7.1 0.2-47 0-90.8-19.5-123.5-54.9C83 639 65.3 592.7 65.3 543.4c0-101.9 78.5-184.9 175.1-184.9 20.3-95.8 102-166 196.4-166 50.7 0 99.2 20 136.4 56.3 31.3 30.5 52.5 70.3 60.8 113.9 12.2-2.8 24.6-4.2 37.2-4.2 96.6 0 175.2 83 175.2 184.9s-78.6 184.9-175.2 184.9c-6.1 0-11.7 0.1-17.1 0.2-5.5 0.2-11 0.4-16.7 0.4z" fill="#1A1A1A" /><path d="M373.4 665.3l57.8 4.4-47.3 65.3 47.1 3.6-110.5 110.6 49.5-86.9-37.7-2.8zM548.4 638.5l63 4.7-51.6 71.1 51.3 3.9-120.3 120.4 54-94.5-41.1-3.2zM453.5 718.8l39.1 2.9-32 44.2 31.9 2.4-74.8 74.7 33.5-58.7-25.4-1.9z" fill="#1A1A1A" /></svg>