<!DOCTYPE svg PUBLIC "-//W3C//DTD SVG 1.1//EN" "http://www.w3.org/Graphics/SVG/1.1/DTD/svg11.dtd">
<!-- Uploaded to: SVG Repo, www.svgrepo.com, Transformed by: SVG Repo Mixer Tools -->
<svg fill="#99a5ff" height="800px" width="800px" version="1.1" id="Layer_1" xmlns="http://www.w3.org/2000/svg" xmlns:xlink="http://www.w3.org/1999/xlink" viewBox="0 0 512.00 512.00" xml:space="preserve" stroke="#99a5ff" transform="matrix(-1, 0, 0, 1, 0, 0)rotate(-45)">
<g id="SVGRepo_bgCarrier" stroke-width="0"/>
<g id="SVGRepo_tracerCarrier" stroke-linecap="round" stroke-linejoin="round"/>
<g id="SVGRepo_iconCarrier"> <g> <g> <path d="M256,336.842c-11.195,0-22.502-0.131-33.684-0.354v67.723c0,18.573,15.111,33.684,33.684,33.684 s33.684-15.111,33.684-33.684v-67.723C278.502,336.711,267.195,336.842,256,336.842z"/> </g> </g> <g> <g> <path d="M121.108,332.288c14.265,25.178,35.366,45.956,60.786,59.826v-56.816C158.601,334.409,137.442,333.274,121.108,332.288z"/> </g> </g> <g> <g> <path d="M343.579,141.474c-22.288,0-40.421,18.133-40.421,40.421c0,22.288,18.133,40.421,40.421,40.421 c22.288,0,40.421-18.133,40.421-40.421C384,159.607,365.867,141.474,343.579,141.474z M343.579,202.105 c-11.162,0-20.211-9.049-20.211-20.211c0-11.162,9.049-20.211,20.211-20.211c11.162,0,20.211,9.049,20.211,20.211 C363.789,193.056,354.741,202.105,343.579,202.105z"/> </g> </g> <g> <g> <path d="M330.105,335.297v56.817c25.421-13.868,46.523-34.649,60.786-59.827C374.558,333.273,353.399,334.407,330.105,335.297z"/> </g> </g> <g> <g> <path d="M256,0C114.615,0,0,114.615,0,256s114.615,256,256,256c141.386,0,256-114.615,256-256S397.386,0,256,0z M343.579,101.053 c44.576,0,80.842,36.266,80.842,80.842c0,44.576-36.266,80.842-80.842,80.842c-44.576,0-80.842-36.266-80.842-80.842 C262.737,137.318,299.003,101.053,343.579,101.053z M209.079,190.903v40.421c-25.628,0-60.729,0-96.693,8.401l-9.194-39.362 C143.691,190.903,181.484,190.903,209.079,190.903z M320.629,440.406c-12.708,22.599-36.908,37.91-64.629,37.91 s-51.921-15.31-64.629-37.91c-57.402-20.122-102.543-66.245-121.298-124.297l-9.281-28.722l30.092,2.359 c0.852,0.067,86.039,6.675,165.116,6.675c79.135,0,164.264-6.608,165.115-6.675l30.093-2.361l-9.281,28.723 C423.171,374.163,378.028,420.287,320.629,440.406z"/> </g> </g> </g>
</svg>